HIERARCHY
ROOT hip
{
  OFFSET 0 0 0
  CHANNELS 6 Xposition Yposition Zposition Zrotation Yrotation Xrotation
  JOINT abdomen
  {
    OFFSET 0 20.6881 -0.73152
    CHANNELS 3 Zrotation Xrotation Yrotation
    JOINT chest
    {
      OFFSET 0 11.7043 -0.48768
      CHANNELS 3 Zrotation Xrotation Yrotation
      JOINT neck
      {
        OFFSET 0 22.1894 -2.19456
        CHANNELS 3 Zrotation Xrotation Yrotation
        JOINT head
        {
          OFFSET -0.24384 7.07133 1.2192
          CHANNELS 3 Zrotation Xrotation Yrotation
          JOINT leftEye
          {
            OFFSET 4.14528 8.04674 8.04672
            CHANNELS 3 Zrotation Xrotation Yrotation
            End Site
            {
              OFFSET 1 0 0
            }
          }
          JOINT rightEye
          {
            OFFSET -3.6576 8.04674 8.04672
            CHANNELS 3 Zrotation Xrotation Yrotation
            End Site
            {
              OFFSET 1 0 0
            }
          }
        }
      }
      JOINT rCollar
      {
        OFFSET -2.68224 19.2634 -4.8768
        CHANNELS 3 Zrotation Xrotation Yrotation
        JOINT rShldr
        {
          OFFSET -8.77824 -1.95073 1.46304
          CHANNELS 3 Zrotation Xrotation Yrotation
          JOINT rForeArm
          {
            OFFSET -28.1742 -1.7115 0.48768
            CHANNELS 3 Zrotation Xrotation Yrotation
            JOINT rHand
            {
              OFFSET -22.5879 0.773209 7.07136
              CHANNELS 3 Zrotation Xrotation Yrotation
              JOINT rThumb1
              {
                OFFSET -1.2192 -0.487915 3.41376
                CHANNELS 3 Zrotation Xrotation Yrotation
                JOINT rThumb2
                {
                  OFFSET -3.37035 -0.52449 3.41376
                  CHANNELS 3 Zrotation Xrotation Yrotation
                  End Site
                  {
                    OFFSET -1.78271 -1.18214 1.43049
                  }
                }
              }
              JOINT rIndex1
              {
                OFFSET -7.75947 0.938293 5.60832
                CHANNELS 3 Zrotation Xrotation Yrotation
                JOINT rIndex2
                {
                  OFFSET -2.54057 -0.884171 1.56538
                  CHANNELS 3 Zrotation Xrotation Yrotation
                  End Site
                  {
                    OFFSET -1.62519 -0.234802 1.16502
                  }
                }
              }
              JOINT rMid1
              {
                OFFSET -8.24714 1.18213 3.41376
                CHANNELS 3 Zrotation Xrotation Yrotation
                JOINT rMid2
                {
                  OFFSET -3.10165 -0.590103 1.0647
                  CHANNELS 3 Zrotation Xrotation Yrotation
                  End Site
                  {
                    OFFSET -2.48547 -0.328903 0.83742
                  }
                }
              }
              JOINT rRing1
              {
                OFFSET -8.82822 0.546677 1.51678
                CHANNELS 3 Zrotation Xrotation Yrotation
                JOINT rRing2
                {
                  OFFSET -2.60934 -0.819778 -0.0198488
                  CHANNELS 3 Zrotation Xrotation Yrotation
                  End Site
                  {
                    OFFSET -2.33842 -0.294052 0.168128
                  }
                }
              }
              JOINT rPinky1
              {
                OFFSET -8.27202 -0.0477905 -0.4584
                CHANNELS 3 Zrotation Xrotation Yrotation
                JOINT rPinky2
                {
                  OFFSET -1.82734 -0.647385 -0.700984
                  CHANNELS 3 Zrotation Xrotation Yrotation
                  End Site
                  {
                    OFFSET -1.69225 -0.51767 -0.607171
                  }
                }
              }
            }
          }
        }
      }
      JOINT lCollar
      {
        OFFSET 2.68224 19.2634 -4.8768
        CHANNELS 3 Zrotation Xrotation Yrotation
        JOINT lShldr
        {
          OFFSET 8.77824 -1.95073 1.46304
          CHANNELS 3 Zrotation Xrotation Yrotation
          JOINT lForeArm
          {
            OFFSET 28.1742 -1.7115 0.48768
            CHANNELS 3 Zrotation Xrotation Yrotation
            JOINT lHand
            {
              OFFSET 22.5879 0.773209 7.07136
              CHANNELS 3 Zrotation Xrotation Yrotation
              JOINT lThumb1
              {
                OFFSET 1.2192 -0.487915 3.41376
                CHANNELS 3 Zrotation Xrotation Yrotation
                JOINT lThumb2
                {
                  OFFSET 3.37035 -0.52449 3.41376
                  CHANNELS 3 Zrotation Xrotation Yrotation
                  End Site
                  {
                    OFFSET 1.78271 -1.18214 1.43049
                  }
                }
              }
              JOINT lIndex1
              {
                OFFSET 7.75947 0.938293 5.60832
                CHANNELS 3 Zrotation Xrotation Yrotation
                JOINT lIndex2
                {
                  OFFSET 2.54057 -0.884171 1.56538
                  CHANNELS 3 Zrotation Xrotation Yrotation
                  End Site
                  {
                    OFFSET 1.62519 -0.234802 1.16502
                  }
                }
              }
              JOINT lMid1
              {
                OFFSET 8.24714 1.18213 3.41376
                CHANNELS 3 Zrotation Xrotation Yrotation
                JOINT lMid2
                {
                  OFFSET 3.10165 -0.590103 1.0647
                  CHANNELS 3 Zrotation Xrotation Yrotation
                  End Site
                  {
                    OFFSET 2.48547 -0.328903 0.83742
                  }
                }
              }
              JOINT lRing1
              {
                OFFSET 8.82822 0.546677 1.51678
                CHANNELS 3 Zrotation Xrotation Yrotation
                JOINT lRing2
                {
                  OFFSET 2.60934 -0.819778 -0.0198488
                  CHANNELS 3 Zrotation Xrotation Yrotation
                  End Site
                  {
                    OFFSET 2.33842 -0.294052 0.168128
                  }
                }
              }
              JOINT lPinky1
              {
                OFFSET 8.27202 -0.0477905 -0.4584
                CHANNELS 3 Zrotation Xrotation Yrotation
                JOINT lPinky2
                {
                  OFFSET 1.82734 -0.647385 -0.700984
                  CHANNELS 3 Zrotation Xrotation Yrotation
                  End Site
                  {
                    OFFSET 1.69225 -0.51767 -0.607171
                  }
                }
              }
            }
          }
        }
      }
    }
  }
  JOINT rButtock
  {
    OFFSET -8.77824 4.35084 1.2192
    CHANNELS 3 Zrotation Xrotation Yrotation
    JOINT rThigh
    {
      OFFSET 0 -1.70687 -2.19456
      CHANNELS 3 Zrotation Xrotation Yrotation
      JOINT rShin
      {
        OFFSET 0 -36.8199 0.73152
        CHANNELS 3 Zrotation Xrotation Yrotation
        JOINT rFoot
        {
          OFFSET 0.73152 -45.1104 -5.12064
          CHANNELS 3 Zrotation Xrotation Yrotation
          End Site
          {
            OFFSET -1.1221 -3.69964 12.103
          }
        }
      }
    }
  }
  JOINT lButtock
  {
    OFFSET 8.77824 4.35084 1.2192
    CHANNELS 3 Zrotation Xrotation Yrotation
    JOINT lThigh
    {
      OFFSET 0 -1.70687 -2.19456
      CHANNELS 3 Zrotation Xrotation Yrotation
      JOINT lShin
      {
        OFFSET 0 -36.8199 0.73152
        CHANNELS 3 Zrotation Xrotation Yrotation
        JOINT lFoot
        {
          OFFSET -0.73152 -45.1104 -5.12064
          CHANNELS 3 Zrotation Xrotation Yrotation
          End Site
          {
            OFFSET 1.1221 -3.69964 12.103
          }
        }
      }
    }
  }
}
MOTION
Frames:	9
Frame Time:	0.00833333
-2.96334 83.9231 24.5736 2.7778 -19.0912 9.1349 4.42913 42.3822 -20.3388 0.979945 -7.3367 -5.01401 1.41435 -10.6456 4.21141 -7.83602 8.44185 8.07141 -0.0 0.0 0.0 -0.0 0.0 0.0 4.29472e-13 6.67548e-14 -3.17906e-13 29.371 17.0676 34.3366 -28.1326 -39.6466 83.2908 -2.73567 -41.6581 -7.18266 1.98046e-09 -3.50822e-09 8.61049e-10 3.38704e-09 -5.76625e-09 1.54892e-09 1.98047e-09 -3.50822e-09 8.61037e-10 7.73091 5.47488 0.417314 1.98046e-09 -3.50821e-09 8.61053e-10 2.90554 0.965183 0.102902 1.98048e-09 -3.50823e-09 8.61046e-10 10.2786 0.731801 0.0259123 1.98046e-09 -3.50822e-09 8.61056e-10 2.22167 -0.733487 -0.20892 4.29206e-13 6.68278e-14 -3.18155e-13 -27.697 31.5914 -87.829 21.0684 -14.4178 -41.3412 0.101021 -9.02812 1.27953 -2.1191e-09 1.34194e-09 9.63291e-10 -3.66828e-09 2.32818e-09 1.66277e-09 -2.11911e-09 1.34194e-09 9.63311e-10 -7.73091 5.47488 -0.417314 -2.1191e-09 1.34194e-09 9.63298e-10 -2.90554 0.965183 -0.102902 -2.11911e-09 1.34194e-09 9.63295e-10 -10.2786 0.731801 -0.0259123 -2.1191e-09 1.34194e-09 9.63291e-10 -2.22167 -0.733487 0.20892 -2.03217e-16 0.0 -3.88251e-19 -21.3393 -2.74644 -0.0151197 0.000593308 -0.189582 0.00527341 0.327998 2.94903 0.00215092 2.03217e-16 0.0 3.88251e-19 8.27278 -21.5773 14.6457 0.0743375 22.7673 -0.520592 3.33839 -11.8948 13.3487
-2.95238 83.9218 24.6015 2.7646 -18.9816 9.2113 4.4841 42.2906 -20.3645 0.977928 -7.3011 -5.01699 1.55972 -10.6379 4.35627 -8.16443 8.44087 8.31395 -0.0 0.0 0.0 -0.0 0.0 0.0 3.9794e-13 3.93332e-14 -2.99457e-13 29.1208 17.1992 34.2059 -28.1189 -39.7335 83.4456 -2.78271 -41.9336 -7.25305 1.90029e-09 -2.30228e-09 1.13994e-09 3.24189e-09 -3.68536e-09 2.02405e-09 1.9003e-09 -2.30228e-09 1.13993e-09 7.73091 5.47488 0.417314 1.90029e-09 -2.30228e-09 1.13995e-09 2.90554 0.965183 0.102902 1.9003e-09 -2.30229e-09 1.13994e-09 10.2786 0.731801 0.0259123 1.90029e-09 -2.30228e-09 1.13995e-09 2.22167 -0.733487 -0.20892 3.97687e-13 3.93848e-14 -2.99672e-13 -27.4297 31.5768 -87.7837 21.1663 -14.5527 -41.5946 0.108643 -9.37048 1.32887 -1.47266e-09 1.8075e-09 1.01818e-09 -2.55181e-09 3.13548e-09 1.76118e-09 -1.47267e-09 1.8075e-09 1.0182e-09 -7.73091 5.47488 -0.417314 -1.47266e-09 1.8075e-09 1.01819e-09 -2.90554 0.965183 -0.102902 -1.47267e-09 1.8075e-09 1.01818e-09 -10.2786 0.731801 -0.0259123 -1.47266e-09 1.8075e-09 1.01818e-09 -2.22167 -0.733487 0.20892 -2.03217e-16 0.0 -3.88251e-19 -21.3388 -2.74429 -0.0151134 0.000579827 -0.19106 0.00515568 0.326992 2.94833 0.00228123 2.03217e-16 0.0 3.88251e-19 8.23228 -21.6195 14.5994 0.0743116 22.7557 -0.520043 3.3368 -11.9106 13.3306
-2.93209 83.9198 24.6141 2.7805 -18.8651 9.2931 4.51782 42.1739 -20.3939 0.978967 -7.24163 -5.02367 1.69386 -10.633 4.50355 -8.45908 8.42727 8.56358 -0.0 0.0 0.0 -0.0 0.0 0.0 2.63882e-13 -4.77911e-15 -2.0522e-13 28.8438 17.3209 34.0877 -28.1046 -39.8216 83.603 -2.82122 -42.1573 -7.31053 1.20965e-09 -3.49759e-10 1.02743e-09 2.05635e-09 -4.17038e-10 1.80428e-09 1.20966e-09 -3.4976e-10 1.02742e-09 7.73091 5.47488 0.417314 1.20965e-09 -3.49755e-10 1.02743e-09 2.90554 0.965183 0.102902 1.20966e-09 -3.49767e-10 1.02743e-09 10.2786 0.731801 0.0259123 1.20965e-09 -3.49762e-10 1.02744e-09 2.22167 -0.733487 -0.20892 2.6366e-13 -4.76316e-15 -2.05404e-13 -27.1516 31.5379 -87.7211 21.2569 -14.6783 -41.8311 0.118198 -9.77459 1.38727 -2.39963e-10 1.80913e-09 7.79702e-10 -4.20437e-10 3.13826e-09 1.35315e-09 -2.3997e-10 1.80913e-09 7.79716e-10 -7.73091 5.47488 -0.417314 -2.39962e-10 1.80913e-09 7.79706e-10 -2.90554 0.965183 -0.102902 -2.39972e-10 1.80913e-09 7.79703e-10 -10.2786 0.731801 -0.0259123 -2.39958e-10 1.80913e-09 7.797e-10 -2.22167 -0.733487 0.20892 -2.03217e-16 0.0 -3.88251e-19 -21.3379 -2.7428 -0.0151185 0.000580793 -0.191038 0.00516414 0.326189 2.94676 0.00237196 2.03217e-16 0.0 3.88251e-19 8.19467 -21.6726 14.5443 0.0742323 22.7543 -0.519584 3.33138 -11.9284 13.2987
-2.91743 83.921 24.6504 2.8034 -18.7891 9.3066 4.53812 42.0535 -20.403 0.974265 -7.18341 -5.02682 1.83754 -10.6182 4.64772 -8.74898 8.4078 8.8027 -0.0 0.0 0.0 -0.0 0.0 0.0 1.172e-13 -6.08191e-14 -1.14065e-13 28.5267 17.4721 33.9766 -28.0893 -39.9135 83.7674 -2.85673 -42.3622 -7.36345 5.19234e-10 1.29705e-09 8.64674e-10 8.72048e-10 2.32862e-09 1.49876e-09 5.19241e-10 1.29705e-09 8.64663e-10 7.73091 5.47488 0.417314 5.19232e-10 1.29705e-09 8.6468e-10 2.90554 0.965183 0.102902 5.1924e-10 1.29704e-09 8.64675e-10 10.2786 0.731801 0.0259123 5.19229e-10 1.29705e-09 8.64691e-10 2.22167 -0.733487 -0.20892 1.17011e-13 -6.08376e-14 -1.14224e-13 -26.8474 31.525 -87.6385 21.3571 -14.8195 -42.0908 0.128071 -10.1629 1.44358 9.62482e-10 1.71312e-09 4.95729e-10 1.65885e-09 2.97183e-09 8.66144e-10 9.62475e-10 1.71312e-09 4.95741e-10 -7.73091 5.47488 -0.417314 9.62483e-10 1.71312e-09 4.95731e-10 -2.90554 0.965183 -0.102902 9.62474e-10 1.71312e-09 4.95728e-10 -10.2786 0.731801 -0.0259123 9.62488e-10 1.71312e-09 4.95724e-10 -2.22167 -0.733487 0.20892 -2.03217e-16 0.0 -3.88251e-19 -21.3373 -2.74198 -0.0151239 0.000588988 -0.190374 0.00523584 0.325812 2.94523 0.00240374 2.03217e-16 0.0 3.88251e-19 8.168 -21.7191 14.4833 0.0741114 22.7592 -0.519302 3.32455 -11.9461 13.2632
-2.91204 83.9233 24.7021 2.7989 -18.6935 9.2913 4.55313 41.9509 -20.3681 0.954989 -7.15153 -5.01922 2.01146 -10.5806 4.78321 -9.06329 8.38919 9.01371 -0.0 0.0 0.0 -0.0 0.0 0.0 4.77924e-14 -1.24024e-13 -1.04859e-13 28.1564 17.6922 33.8672 -28.0727 -40.012 83.9432 -2.89516 -42.5814 -7.42046 4.39697e-10 1.58585e-09 9.92851e-10 7.30581e-10 2.8415e-09 1.71663e-09 4.39705e-10 1.58585e-09 9.92842e-10 7.73091 5.47488 0.417314 4.39696e-10 1.58585e-09 9.92858e-10 2.90554 0.965183 0.102902 4.39702e-10 1.58584e-09 9.92854e-10 10.2786 0.731801 0.0259123 4.39692e-10 1.58585e-09 9.92871e-10 2.22167 -0.733487 -0.20892 4.76276e-14 -1.2406e-13 -1.05008e-13 -26.502 31.5884 -87.5324 21.4831 -14.9999 -42.4145 0.136048 -10.458 1.48649 1.51815e-09 1.88575e-09 4.1413e-10 2.61905e-09 3.27152e-09 7.276e-10 1.51814e-09 1.88575e-09 4.1414e-10 -7.73091 5.47488 -0.417314 1.51815e-09 1.88574e-09 4.1413e-10 -2.90554 0.965183 -0.102902 1.51814e-09 1.88574e-09 4.14128e-10 -10.2786 0.731801 -0.0259123 1.51815e-09 1.88574e-09 4.14124e-10 -2.22167 -0.733487 0.20892 -2.03217e-16 0.0 -3.88251e-19 -21.3374 -2.74185 -0.0151186 0.000597194 -0.189925 0.00530783 0.326088 2.94461 0.00235722 2.03217e-16 0.0 3.88251e-19 8.16039 -21.7416 14.4189 0.0739608 22.7665 -0.519283 3.31871 -11.9618 13.234
-2.91941 83.9243 24.7548 2.7376 -18.5626 9.286 4.56646 41.8771 -20.2752 0.914463 -7.16017 -4.99689 2.23577 -10.5066 4.91019 -9.43175 8.36604 9.18974 -0.0 0.0 0.0 -0.0 0.0 0.0 1.06647e-13 -2.21855e-13 -2.50608e-13 27.7225 17.9996 33.7388 -28.0534 -40.1248 84.1442 -2.94179 -42.8438 -7.48928 1.49046e-09 -5.38354e-10 1.72792e-09 2.51663e-09 -5.96819e-10 3.02056e-09 1.49047e-09 -5.38355e-10 1.72791e-09 7.73091 5.47488 0.417314 1.49046e-09 -5.38354e-10 1.72792e-09 2.90554 0.965183 0.102902 1.49047e-09 -5.38358e-10 1.72792e-09 10.2786 0.731801 0.0259123 1.49046e-09 -5.38356e-10 1.72794e-09 2.22167 -0.733487 -0.20892 1.06492e-13 -2.21883e-13 -2.50771e-13 -26.1098 31.7636 -87.3932 21.6406 -15.2279 -42.8247 0.139681 -10.5824 1.50464 1.0588e-09 2.6665e-09 7.06135e-10 1.82239e-09 4.62634e-09 1.23335e-09 1.05879e-09 2.66649e-09 7.06143e-10 -7.73091 5.47488 -0.417314 1.0588e-09 2.66649e-09 7.06134e-10 -2.90554 0.965183 -0.102902 1.0588e-09 2.66649e-09 7.06133e-10 -10.2786 0.731801 -0.0259123 1.05881e-09 2.66649e-09 7.06128e-10 -2.22167 -0.733487 0.20892 -2.03217e-16 0.0 -3.88251e-19 -21.3386 -2.74262 -0.0150945 0.000602137 -0.190146 0.00535158 0.327303 2.94558 0.00220142 2.03217e-16 0.0 3.88251e-19 8.18186 -21.7251 14.3541 0.0737173 22.7752 -0.51965 3.31566 -11.9761 13.2172
-2.92739 83.9248 24.7994 2.6719 -18.4555 9.2881 4.57365 41.8189 -20.1396 0.858863 -7.19345 -4.96437 2.49429 -10.4066 5.03103 -9.83145 8.33722 9.3409 -0.0 0.0 0.0 -0.0 0.0 0.0 2.36811e-13 -3.47275e-13 -4.91924e-13 27.2351 18.3714 33.6014 -28.0315 -40.2478 84.3645 -2.99249 -43.1251 -7.56373 3.22699e-09 -4.25621e-09 2.81292e-09 5.47237e-09 -6.65349e-09 4.95227e-09 3.22699e-09 -4.25621e-09 2.81292e-09 7.73091 5.47488 0.417314 3.22698e-09 -4.25621e-09 2.81293e-09 2.90554 0.965183 0.102902 3.22699e-09 -4.25621e-09 2.81293e-09 10.2786 0.731801 0.0259123 3.22698e-09 -4.25621e-09 2.81294e-09 2.22167 -0.733487 -0.20892 2.3666e-13 -3.47279e-13 -4.92119e-13 -25.6805 32.016 -87.2236 21.8179 -15.4872 -43.2967 0.140263 -10.5964 1.50672 -1.87995e-11 3.77941e-09 1.2045e-09 -4.43292e-11 6.55761e-09 2.09481e-09 -1.88091e-11 3.77941e-09 1.20451e-09 -7.73091 5.47488 -0.417314 -1.87977e-11 3.77941e-09 1.2045e-09 -2.90554 0.965183 -0.102902 -1.88016e-11 3.77941e-09 1.2045e-09 -10.2786 0.731801 -0.0259123 -1.87962e-11 3.77941e-09 1.2045e-09 -2.22167 -0.733487 0.20892 -2.03217e-16 0.0 -3.88251e-19 -21.3406 -2.74422 -0.0150593 0.000608116 -0.190504 0.00540459 0.329262 2.94752 0.00195529 2.03217e-16 0.0 3.88251e-19 8.22561 -21.6823 14.2867 0.0733967 22.7874 -0.520321 3.31372 -11.9896 13.2061
-2.92622 83.9252 24.8334 2.6319 -18.3717 9.2899 4.57073 41.7605 -19.9818 0.798622 -7.23139 -4.92718 2.7533 -10.3035 5.14352 -10.2128 8.3159 9.47508 -0.0 0.0 0.0 -0.0 0.0 0.0 3.66281e-13 -4.43773e-13 -7.09084e-13 26.7115 18.7842 33.4962 -28.0095 -40.3662 84.5785 -3.0389 -43.3783 -7.63143 4.81398e-09 -7.8085e-09 3.72968e-09 8.17564e-09 -1.24617e-08 6.58947e-09 4.81399e-09 -7.8085e-09 3.72967e-09 7.73091 5.47488 0.417314 4.81398e-09 -7.8085e-09 3.72968e-09 2.90554 0.965183 0.102902 4.81398e-09 -7.8085e-09 3.72968e-09 10.2786 0.731801 0.0259123 4.81398e-09 -7.8085e-09 3.72969e-09 2.22167 -0.733487 -0.20892 3.66131e-13 -4.43751e-13 -7.09314e-13 -25.2225 32.2906 -87.0377 22.0046 -15.7645 -43.8017 0.141059 -10.629 1.51145 -1.1837e-09 4.66763e-09 1.6494e-09 -2.06118e-09 8.09903e-09 2.86281e-09 -1.18371e-09 4.66763e-09 1.6494e-09 -7.73091 5.47488 -0.417314 -1.1837e-09 4.66763e-09 1.64939e-09 -2.90554 0.965183 -0.102902 -1.1837e-09 4.66763e-09 1.6494e-09 -10.2786 0.731801 -0.0259123 -1.1837e-09 4.66764e-09 1.64939e-09 -2.22167 -0.733487 0.20892 -2.03217e-16 0.0 -3.88251e-19 -21.3427 -2.74623 -0.0150253 0.000619276 -0.190377 0.00550289 0.331465 2.94939 0.00167429 2.03217e-16 0.0 3.88251e-19 8.27456 -21.6371 14.212 0.0731306 22.8036 -0.521087 3.31019 -12.0008 13.1924
-2.93863 83.9278 24.9029 2.5501 -18.332 9.2409 4.55379 41.6861 -19.8223 0.744114 -7.25401 -4.8909 2.97926 -10.2204 5.24546 -10.5262 8.31524 9.6002 -0.0 0.0 0.0 -0.0 0.0 0.0 4.23052e-13 -4.54838e-13 -7.82367e-13 26.1677 19.2142 33.4646 -27.9902 -40.4654 84.7597 -3.07205 -43.5564 -7.67949 5.41617e-09 -9.43601e-09 3.95999e-09 9.20429e-09 -1.51546e-08 7.00989e-09 5.41617e-09 -9.43601e-09 3.95999e-09 7.73091 5.47488 0.417314 5.41616e-09 -9.43601e-09 3.95999e-09 2.90554 0.965183 0.102902 5.41616e-09 -9.43601e-09 3.95999e-09 10.2786 0.731801 0.0259123 5.41617e-09 -9.43601e-09 3.96e-09 2.22167 -0.733487 -0.20892 4.22904e-13 -4.54801e-13 -7.82615e-13 -24.7431 32.5327 -86.8516 22.1914 -16.0476 -44.3102 0.145487 -10.8095 1.53764 -1.90494e-09 4.7743e-09 1.78098e-09 -3.30826e-09 8.28434e-09 3.08815e-09 -1.90495e-09 4.7743e-09 1.78099e-09 -7.73091 5.47488 -0.417314 -1.90494e-09 4.7743e-09 1.78098e-09 -2.90554 0.965183 -0.102902 -1.90494e-09 4.7743e-09 1.78099e-09 -10.2786 0.731801 -0.0259123 -1.90494e-09 4.77431e-09 1.78098e-09 -2.22167 -0.733487 0.20892 -2.03217e-16 0.0 -3.88251e-19 -21.3441 -2.74825 -0.015005 0.000639756 -0.189146 0.00568253 0.333414 2.95015 0.00141389 2.03217e-16 0.0 3.88251e-19 8.31151 -21.6134 14.1255 0.07305 22.8243 -0.521735 3.30232 -12.0079 13.1675
